# xmcd
#
# Track frame offsets:
#	182
#	18412
#	34625
#	46762
#	62837
#	76807
#	88960
#	105177
#	120712
#	131822
#
# Disc length: 1920 seconds
# Revision: 6
# Processed by: cddbd v1.5.2PL0 Copyright (c) Steve Scherf et al.
# Submitted via: dBpowerAMP V12.0
#
DISCID=77077e0a
DTITLE=Randy Travis - High Lonesome
DYEAR=1991
DGENRE=Country
TTITLE0=Let Me Try
TTITLE1=Oh, What A Time To Be Me
TTITLE2=Heart Of Hearts
TTITLE3=Point Of Light
TTITLE4=Forever Together
TTITLE5=Better Class Of Losers
TTITLE6=I'd Surrender All
TTITLE7=High Lonesome
TTITLE8=Allergic To The Blues
TTITLE9=I'm Gonna Have A Little Talk
EXTD=
EXTT0=
EXTT1=
EXTT2=
EXTT3=
EXTT4=
EXTT5=
EXTT6=
EXTT7=
EXTT8=
EXTT9=
PLAYORDER=
